<?xml version="1.0" encoding="UTF-8" standalone="no"?>
<!DOCTYPE svg PUBLIC "-//W3C//DTD SVG 1.1//EN" "http://www.w3.org/Graphics/SVG/1.1/DTD/svg11.dtd">
<svg width="100%" height="100%" viewBox="0 0 2000 2000" version="1.1" xmlns="http://www.w3.org/2000/svg" xmlns:xlink="http://www.w3.org/1999/xlink" xml:space="preserve" xmlns:serif="http://www.serif.com/" style="fill-rule:evenodd;clip-rule:evenodd;stroke-linejoin:round;stroke-miterlimit:2;">
    <g transform="matrix(1.23222,0,0,1.31808,-198.825,-475.066)">
        <path d="M380.05,1651.65C357.903,1651.65 336.663,1643.43 321.003,1628.79C305.343,1614.15 296.545,1594.29 296.545,1573.59L296.545,712.981C296.545,692.277 305.343,672.42 321.003,657.78C336.663,643.14 357.903,634.915 380.05,634.915L659.206,634.915C681.594,634.915 703.044,643.319 718.742,658.241C754.921,692.631 822.203,756.586 858.547,791.133C874.415,806.216 896.152,814.633 918.781,814.456C1033.73,813.558 1398.62,810.706 1565.04,809.406C1587.31,809.232 1608.73,817.379 1624.54,832.038C1640.35,846.696 1649.25,866.651 1649.25,887.469L1649.25,1573.59C1649.25,1594.29 1640.45,1614.15 1624.79,1628.79C1609.13,1643.43 1587.89,1651.65 1565.74,1651.65L380.05,1651.65Z" style="fill:rgb(89,179,252);"/>
    </g>
</svg>
